<svg xmlns="http://www.w3.org/2000/svg" viewBox="0 0 32 32"><defs><style>.cls-1{fill:#fff;}</style></defs><g id="body"><path class="cls-1" d="M26.51,13.46h0a1.74,1.74,0,0,1-1.61-1.08s0-.08,0-.12a1.71,1.71,0,0,1,.37-1.89,1.75,1.75,0,0,0,0-2.47L24.1,6.77a1.75,1.75,0,0,0-2.47,0h0a1.71,1.71,0,0,1-1.89.37l-.12,0a1.74,1.74,0,0,1-1.08-1.61h0A1.74,1.74,0,0,0,16.8,3.75H15.2a1.74,1.74,0,0,0-1.74,1.74h0A1.74,1.74,0,0,1,12.38,7.1l-.12,0a1.71,1.71,0,0,1-1.89-.37h0a1.75,1.75,0,0,0-2.47,0L6.77,7.9a1.75,1.75,0,0,0,0,2.47,1.71,1.71,0,0,1,.37,1.89s0,.08,0,.12a1.74,1.74,0,0,1-1.61,1.08h0A1.74,1.74,0,0,0,3.75,15.2v1.6a1.74,1.74,0,0,0,1.74,1.74h0A1.74,1.74,0,0,1,7.1,19.62s0,.08,0,.12a1.71,1.71,0,0,1-.37,1.89h0a1.75,1.75,0,0,0,0,2.47L7.9,25.23a1.75,1.75,0,0,0,2.47,0h0a1.73,1.73,0,0,1,1.89-.38l.12,0a1.74,1.74,0,0,1,1.08,1.61h0a1.74,1.74,0,0,0,1.74,1.74h1.6a1.74,1.74,0,0,0,1.74-1.74h0a1.74,1.74,0,0,1,1.08-1.61l.12,0a1.73,1.73,0,0,1,1.89.38h0a1.75,1.75,0,0,0,2.47,0l1.13-1.13a1.75,1.75,0,0,0,0-2.47h0a1.71,1.71,0,0,1-.37-1.89s0-.08,0-.12a1.74,1.74,0,0,1,1.61-1.08h0a1.74,1.74,0,0,0,1.74-1.74V15.2A1.74,1.74,0,0,0,26.51,13.46ZM16,21.9A5.9,5.9,0,1,1,21.9,16,5.9,5.9,0,0,1,16,21.9Z"/></g></svg>