<svg xmlns="http://www.w3.org/2000/svg" viewBox="0 0 32 32"><defs><style>.cls-1{opacity:0.5;}.cls-2{fill:none;stroke:#fff;stroke-linecap:round;stroke-linejoin:round;}.cls-3{fill:#fff;}.cls-4{fill:#3ec188;}</style></defs><g id="body"><g class="cls-1"><polyline class="cls-2" points="18.48 8.53 13.52 3.57 4.3 3.57 4.3 21.76 8.48 21.76"/><polyline class="cls-3" points="13.52 3.57 13.52 8.53 18.48 8.53"/></g></g><g id="accent"><path class="cls-3" d="M22.72,20.77A2,2,0,1,1,21.49,17l3.59-1.17a2,2,0,0,1,1.24,3.81Z"/><path class="cls-4" d="M20.25,16.07a2,2,0,0,1-4,0V12.29a2,2,0,0,1,4,0Z"/><path class="cls-4" d="M19,24.51a2,2,0,1,1,3.23-2.35l2.25,3.09a2,2,0,0,1-3.24,2.35Z"/><path class="cls-4" d="M15,17a2,2,0,1,1-1.23,3.8l-3.6-1.16a2,2,0,0,1,1.24-3.81Z"/><path class="cls-4" d="M14.3,22.19a2,2,0,1,1,3.25,2.33l-2.2,3.08a2,2,0,0,1-3.25-2.33Z"/></g></svg>