<svg xmlns="http://www.w3.org/2000/svg" viewBox="0 0 32 32"><defs><style>.cls-1{opacity:0.5;}.cls-2{fill:#fff;}.cls-3{fill:none;stroke:#fff;stroke-miterlimit:10;opacity:0.25;}</style></defs><g id="body"><g class="cls-1"><path class="cls-2" d="M15.63,16.65A2,2,0,0,1,16,16l.65-.87a3.35,3.35,0,0,0,.43-.72,1.54,1.54,0,0,0,.12-.61,1.26,1.26,0,0,0-.31-.9,1.21,1.21,0,0,0-.89-.32c-.78,0-1.17.44-1.19,1.31h-.86a2.19,2.19,0,0,1,.55-1.55A2,2,0,0,1,16,11.8a2.06,2.06,0,0,1,1.5.55,2,2,0,0,1,.55,1.46,2.26,2.26,0,0,1-.14.79,4,4,0,0,1-.47.81l-.68,1a2.17,2.17,0,0,0-.28.49,1.53,1.53,0,0,0-.07.51v.69h-.88v-.71A2.29,2.29,0,0,1,15.63,16.65Zm.89,2.43V20.2H15.45V19.08Z"/></g><rect class="cls-3" x="3.7" y="3.7" width="24.61" height="24.61" rx="2.7"/></g></svg>