<svg xmlns="http://www.w3.org/2000/svg" viewBox="0 0 32 32"><defs><style>.cls-1{opacity:0.5;}.cls-2{fill:none;stroke:#fff;stroke-miterlimit:10;stroke-width:2px;}.cls-3{fill:#fff;}</style></defs><g id="body"><g class="cls-1"><path class="cls-2" d="M11.47,11.65V10.28A4.53,4.53,0,0,1,16,5.75h0a4.53,4.53,0,0,1,4.53,4.53v1.37"/><path class="cls-3" d="M21.77,11.65H10.23a1.82,1.82,0,0,0-1.82,1.83V24.42a1.82,1.82,0,0,0,1.82,1.83H21.77a1.82,1.82,0,0,0,1.82-1.83V13.48A1.82,1.82,0,0,0,21.77,11.65ZM18,19l2.82,2.82A1.29,1.29,0,0,1,19,23.59l-2.82-2.82L14.36,19l-2.82-2.82a1.27,1.27,0,0,1,0-1.82,1.29,1.29,0,0,1,1.82,0l2.82,2.82Z"/></g></g></svg>