<svg xmlns="http://www.w3.org/2000/svg" viewBox="0 0 32 32"><defs><style>.cls-1{fill:none;stroke:#fff;stroke-linecap:round;stroke-miterlimit:10;opacity:0.25;}.cls-2{fill:#fff;}.cls-3{fill:#3ec188;}</style></defs><g id="body"><path class="cls-1" d="M28.3,13V6.4a2.7,2.7,0,0,0-2.7-2.7H6.4A2.7,2.7,0,0,0,3.7,6.4V25.6a2.7,2.7,0,0,0,2.7,2.7h6.44"/></g><g id="accent"><path class="cls-2" d="M20.47,17.41a2,2,0,1,1-1.24-3.8l3.6-1.17a2,2,0,1,1,1.23,3.8Z"/><path class="cls-3" d="M18,12.71a2,2,0,0,1-4,0V8.93a2,2,0,0,1,4,0Z"/><path class="cls-3" d="M16.71,21.14A2,2,0,0,1,20,18.79l2.25,3.1A2,2,0,0,1,19,24.24Z"/><path class="cls-3" d="M12.77,13.61a2,2,0,0,1-1.24,3.8L7.94,16.24a2,2,0,1,1,1.23-3.8Z"/><path class="cls-3" d="M12.05,18.83a2,2,0,1,1,3.25,2.33l-2.2,3.07a2,2,0,1,1-3.25-2.32Z"/></g></svg>