<svg xmlns="http://www.w3.org/2000/svg" viewBox="0 0 32 32"><defs><style>.cls-1{fill:#fff;}.cls-2{fill:#3ec188;}</style></defs><g id="body"><rect class="cls-1" x="17" y="5" width="10" height="10" rx="2"/><rect class="cls-1" x="5" y="17" width="10" height="10" rx="2"/><rect class="cls-1" x="17" y="23" width="10" height="4" rx="2"/><rect class="cls-1" x="17" y="17" width="10" height="4" rx="2"/></g><g id="accent"><path class="cls-2" d="M13,5H7A2,2,0,0,0,5,7v6a2,2,0,0,0,2,2h6a2,2,0,0,0,2-2V7A2,2,0,0,0,13,5ZM7.53,9A1.48,1.48,0,1,1,9,7.47,1.48,1.48,0,0,1,7.53,9Z"/></g></svg>