<svg xmlns="http://www.w3.org/2000/svg" viewBox="0 0 32 32"><defs><style>.cls-1{fill:#fff;}.cls-2{fill:#3ec188;}</style></defs><g id="accent"><path class="cls-1" d="M24.06,16.59a2,2,0,1,1-1.23-3.8l3.59-1.17a2,2,0,0,1,1.24,3.8Z"/><path class="cls-2" d="M18,9.28a2,2,0,1,1-4,0V5.5a2,2,0,0,1,4,0Z"/><path class="cls-2" d="M19,24.59a2,2,0,1,1,3.24-2.36l2.24,3.1a2,2,0,1,1-3.23,2.35Z"/><path class="cls-2" d="M9.17,12.79a2,2,0,1,1-1.23,3.8l-3.6-1.17a2,2,0,0,1,1.24-3.8Z"/><path class="cls-2" d="M9.85,22.25a2,2,0,1,1,3.25,2.33l-2.2,3.08a2,2,0,0,1-3.25-2.33Z"/></g></svg>