<svg xmlns="http://www.w3.org/2000/svg" viewBox="0 0 32 32"><defs><style>.cls-1{fill:#fff;}.cls-2{fill:#e20500;}</style></defs><g id="body"><path class="cls-1" d="M17.32,18.84l4.3,4.3a2.06,2.06,0,0,0,2.64.3,2,2,0,0,0,.26-3.05L20.14,16l4.3-4.3a2.08,2.08,0,0,0,.3-2.65,2,2,0,0,0-3-.26L16.46,14a2.79,2.79,0,0,0,0,3.95Z"/><path class="cls-2" d="M8.57,18.84l4.3,4.3a2.06,2.06,0,0,0,2.64.3,2,2,0,0,0,.26-3.05L11.39,16l4.3-4.3A2.08,2.08,0,0,0,16,9.07a2,2,0,0,0-3.05-.26L7.71,14a2.79,2.79,0,0,0,0,3.95Z"/></g></svg>