<svg xmlns="http://www.w3.org/2000/svg" viewBox="0 0 32 32"><defs><style>.cls-1{fill:#fff;}.cls-2{opacity:0.5;}.cls-3{fill:none;stroke:#fff;stroke-miterlimit:10;}.cls-4{fill:#3ec188;}</style></defs><g id="body"><circle class="cls-1" cx="16" cy="7" r="2"/><g class="cls-2"><path class="cls-3" d="M7,25V18.77a2.7,2.7,0,0,1,2.7-2.7h3.6a2.7,2.7,0,0,1,2.7,2.7V25"/><circle class="cls-1" cx="16" cy="25" r="2"/><circle class="cls-1" cx="7" cy="25" r="2"/></g><rect class="cls-1" x="15.5" y="7" width="1" height="4.56"/></g><g id="accent"><circle class="cls-4" cx="25" cy="25.07" r="2"/><path class="cls-4" d="M25.5,25h-1V18.77a2.21,2.21,0,0,0-2.2-2.2H18.7a3.2,3.2,0,0,1-3.2-3.2V11.56h1v1.81a2.2,2.2,0,0,0,2.2,2.2h3.6a3.21,3.21,0,0,1,3.2,3.2Z"/></g></svg>