<svg xmlns="http://www.w3.org/2000/svg" viewBox="0 0 32 32"><defs><style>.cls-1{fill:#3ec188;}</style></defs><g id="accent"><path class="cls-1" d="M25,23a2,2,0,0,1,0,4H7a2,2,0,0,1,0-4"/><path class="cls-1" d="M23,23a2,2,0,0,1,4,0v2a2,2,0,0,1-4,0"/><path class="cls-1" d="M9,25a2,2,0,0,1-4,0V23a2,2,0,0,1,4,0"/><path class="cls-1" d="M18.84,18.86l4.3-4.3a2.09,2.09,0,0,0,.29-2.65,2,2,0,0,0-3.05-.25L16,16l-4.3-4.3a2.07,2.07,0,0,0-2.65-.29,2,2,0,0,0-.26,3L14,19.71a2.79,2.79,0,0,0,4,0Z"/><path class="cls-1" d="M18,18.56a2,2,0,1,1-4,0V7a2,2,0,0,1,4,0"/></g></svg>