<svg xmlns="http://www.w3.org/2000/svg" viewBox="0 0 32 32"><defs><style>.cls-1{fill:none;stroke:#fff;stroke-linecap:round;stroke-miterlimit:10;opacity:0.25;}.cls-2{fill:#fff;}.cls-3{fill:#3ec188;}</style></defs><g id="body"><path class="cls-1" d="M28.3,13V6.4a2.7,2.7,0,0,0-2.7-2.7H6.4A2.7,2.7,0,0,0,3.7,6.4V25.6a2.7,2.7,0,0,0,2.7,2.7h6.44"/><path class="cls-2" d="M27.78,17H18.47A1.51,1.51,0,0,0,17,18.53v9.19a1.51,1.51,0,0,0,1.47,1.53h9.31a1.51,1.51,0,0,0,1.47-1.53V18.53A1.51,1.51,0,0,0,27.78,17Zm-.91,8.4a1,1,0,0,1-1.47,1.47l-2.28-2.28-2.27,2.28a1,1,0,0,1-1.47-1.47l2.28-2.28-2.28-2.27a1,1,0,0,1,1.47-1.47l2.27,2.28,2.28-2.28a1,1,0,0,1,1.47,1.47l-2.28,2.27Z"/></g><g id="accent"><circle class="cls-3" cx="9" cy="23" r="2"/><circle class="cls-3" cx="9" cy="16.07" r="2"/><circle class="cls-3" cx="16" cy="9" r="2"/><circle class="cls-3" cx="23" cy="9" r="2"/><circle class="cls-3" cx="9" cy="9" r="2"/></g></svg>