<svg xmlns="http://www.w3.org/2000/svg" viewBox="0 0 32 32"><defs><style>.cls-1{fill:#fff;}.cls-2{fill:none;stroke:#3ec188;stroke-linecap:round;stroke-linejoin:round;}</style></defs><title>icon</title><g id="accent"><path class="cls-1" d="M23.5,13a8.63,8.63,0,0,0-1.23-2.81c-.51-.6-.74-.83-2.43-.83H18V20.83c0,2.4.29,2.58,2.84,2.78v1.06H11.33V23.61c2.44-.2,2.69-.38,2.69-2.78V9.37H12.28c-1.61,0-2.06.25-2.61.94A11.06,11.06,0,0,0,8.5,13H7.41c.2-2.09.4-4.32.46-5.7h.85c.43.66.78.72,1.64.72H21.82a1.89,1.89,0,0,0,1.66-.72h.83c0,1.21.14,3.73.28,5.59Z"/><line class="cls-2" x1="16" y1="22" x2="16" y2="10"/></g></svg>