<svg id="body" xmlns="http://www.w3.org/2000/svg" viewBox="0 0 32 32"><defs><style>.cls-1,.cls-3,.cls-6{fill:#3ec188;}.cls-1,.cls-2{opacity:0.25;}.cls-2,.cls-4,.cls-5{fill:#fff;}.cls-3,.cls-4{opacity:0.5;}</style></defs><title>icon</title><path class="cls-1" d="M11.34,12.55a7.56,7.56,0,0,1,4.66-6A7.45,7.45,0,0,0,13.16,6,7.56,7.56,0,0,0,8.53,19.49a6.66,6.66,0,0,1-.08-1A7.51,7.51,0,0,1,11.34,12.55Z"/><path class="cls-2" d="M26.4,13.52A7.56,7.56,0,0,0,18.84,6,7.45,7.45,0,0,0,16,6.51a7.55,7.55,0,0,1,4.65,6,7.52,7.52,0,0,1,2.94,6,7.63,7.63,0,0,1-.07,1A7.53,7.53,0,0,0,26.4,13.52Z"/><path class="cls-3" d="M11.34,12.55a7.53,7.53,0,0,1,9.31,0,7.55,7.55,0,0,0-4.65-6A7.56,7.56,0,0,0,11.34,12.55Z"/><path class="cls-4" d="M16,20.53a7.64,7.64,0,0,1-2.84.55,7.48,7.48,0,0,1-4.63-1.59,7.56,7.56,0,0,0,15,0,7.51,7.51,0,0,1-4.68,1.63A7.64,7.64,0,0,1,16,20.53Z"/><path class="cls-3" d="M16,20.53a7.48,7.48,0,0,1-4.66-8,7.51,7.51,0,0,0-2.89,5.93,6.66,6.66,0,0,0,.08,1,7.48,7.48,0,0,0,4.63,1.59A7.64,7.64,0,0,0,16,20.53Z"/><path class="cls-5" d="M20.65,12.51a6.66,6.66,0,0,1,.08,1,7.57,7.57,0,0,1-4.73,7,7.64,7.64,0,0,0,2.84.55,7.51,7.51,0,0,0,4.68-1.63,7.63,7.63,0,0,0,.07-1A7.52,7.52,0,0,0,20.65,12.51Z"/><path class="cls-6" d="M11.34,12.55a7.48,7.48,0,0,0,4.66,8,7.57,7.57,0,0,0,4.73-7,6.66,6.66,0,0,0-.08-1,7.53,7.53,0,0,0-9.31,0Z"/></svg>