<svg xmlns="http://www.w3.org/2000/svg" viewBox="0 0 32 32"><defs><style>.cls-1{fill:#3ec188;}.cls-2{fill:#fff;}.cls-3{fill:none;stroke:#fff;stroke-miterlimit:10;}</style></defs><title>icon</title><g id="accent"><path class="cls-1" d="M9,11A2,2,0,0,1,9,7H23a2,2,0,0,1,0,4Z"/><path class="cls-2" d="M9,25a2,2,0,0,1,0-4H9a2,2,0,0,1,0,4Z"/><path class="cls-2" d="M23,25a2,2,0,0,1,0-4h0a2,2,0,0,1,0,4Z"/><path class="cls-2" d="M16,25a2,2,0,0,1,0-4h0a2,2,0,0,1,0,4Z"/><line class="cls-3" x1="23" y1="16" x2="9" y2="16"/><path class="cls-2" d="M9,18a2,2,0,0,1,0-4H9a2,2,0,0,1,0,4Z"/><path class="cls-2" d="M23,18a2,2,0,0,1,0-4h0a2,2,0,0,1,0,4Z"/></g></svg>