<svg xmlns="http://www.w3.org/2000/svg" viewBox="0 0 32 32"><defs><style>.cls-1,.cls-2{fill:none;stroke-miterlimit:10;}.cls-1{stroke:#3ec188;}.cls-2{stroke:#fff;}.cls-3{fill:#3ec188;}.cls-4{fill:#fff;}</style></defs><title>icon</title><g id="body"><line class="cls-1" x1="23" y1="9" x2="9" y2="9"/><line class="cls-2" x1="23" y1="16" x2="9" y2="16"/><line class="cls-2" x1="23" y1="23" x2="9" y2="23"/></g><g id="accent"><path class="cls-3" d="M9,11A2,2,0,0,1,9,7H9a2,2,0,0,1,0,4Z"/><path class="cls-4" d="M9,18a2,2,0,0,1,0-4H9a2,2,0,0,1,0,4Z"/><path class="cls-4" d="M9,25a2,2,0,0,1,0-4H9a2,2,0,0,1,0,4Z"/><path class="cls-3" d="M23,11a2,2,0,0,1,0-4h0a2,2,0,0,1,0,4Z"/><path class="cls-4" d="M23,18a2,2,0,0,1,0-4h0a2,2,0,0,1,0,4Z"/><path class="cls-4" d="M23,25a2,2,0,0,1,0-4h0a2,2,0,0,1,0,4Z"/></g></svg>