<?xml version="1.0" encoding="UTF-8" standalone="no"?>
<svg
   fill="#000000"
   viewBox="0 0 50 50"
   width="500px"
   height="500px"
   version="1.1"
   id="svg4"
   sodipodi:docname="pCloud Dolphin sidebar.svg"
   inkscape:version="1.1 (c4e8f9ed74, 2021-05-24)"
   xmlns:inkscape="http://www.inkscape.org/namespaces/inkscape"
   xmlns:sodipodi="http://sodipodi.sourceforge.net/DTD/sodipodi-0.dtd"
   xmlns="http://www.w3.org/2000/svg"
   xmlns:svg="http://www.w3.org/2000/svg">
  <defs
     id="defs8" />
  <sodipodi:namedview
     id="namedview6"
     pagecolor="#ffffff"
     bordercolor="#666666"
     borderopacity="1.0"
     inkscape:pageshadow="2"
     inkscape:pageopacity="0.0"
     inkscape:pagecheckerboard="0"
     showgrid="false"
     inkscape:zoom="1.32"
     inkscape:cx="250"
     inkscape:cy="249.62121"
     inkscape:window-width="1920"
     inkscape:window-height="1025"
     inkscape:window-x="1920"
     inkscape:window-y="26"
     inkscape:window-maximized="1"
     inkscape:current-layer="svg4" />
  <path
     d="M 25 9 C 19.99 9 15.519984 11.3215 12.583984 14.9375 C 12.588984 14.9385 12.594609 14.939453 12.599609 14.939453 C 10.558609 17.456453 9.2508281 20.598594 9.0488281 24.058594 C 9.0178281 24.609594 8.5631875 25.019094 7.9921875 24.996094 C 7.4411875 24.964094 7.0197344 24.491453 7.0527344 23.939453 C 7.2057344 21.311453 7.9308906 18.849344 9.0878906 16.652344 C 9.1138906 16.594344 9.1271562 16.542469 9.1601562 16.480469 C 3.8961563 17.956469 -1.1842379e-15 22.803 0 28.5 C 0 35.393 5.607 41 12.5 41 L 41 41 C 45.963 41 50 36.963 50 32 C 50 30.111 49.390312 28.303688 48.320312 26.804688 C 47.853313 27.903688 47.160578 28.907375 46.267578 29.734375 C 46.074578 29.912375 45.830891 30 45.587891 30 C 45.318891 30 45.050516 29.892688 44.853516 29.679688 C 44.478516 29.273688 44.502203 28.641625 44.908203 28.265625 C 46.257203 27.017625 47 25.325 47 23.5 C 47 19.751 44.232766 16.646703 40.634766 16.095703 C 40.626766 16.106703 40.627141 16.115953 40.619141 16.126953 C 41.945141 18.453953 42.781266 21.100406 42.947266 23.941406 C 42.979266 24.493406 42.557812 24.965047 42.007812 24.998047 C 41.986813 24.999047 41.967266 25 41.947266 25 C 41.422266 25 40.981172 24.589594 40.951172 24.058594 C 40.779172 21.105594 39.793141 18.387891 38.244141 16.087891 C 37.999141 15.724891 37.755422 15.358578 37.482422 15.017578 C 34.547422 11.354578 30.047 9 25 9 z M 25 13 C 31.617 13 37 18.383 37 25 C 37 31.617 31.617 37 25 37 C 18.383 37 13 31.617 13 25 C 13 18.383 18.383 13 25 13 z M 25 15 C 19.486 15 15 19.486 15 25 C 15 30.514 19.486 35 25 35 C 30.514 35 35 30.514 35 25 C 35 19.486 30.514 15 25 15 z M 21.5 19 L 26.5 19 C 28.981 19 31 21.019 31 23.5 C 31 25.981 28.981 28 26.5 28 L 23 28 L 23 30.5 C 23 31.328 22.328 32 21.5 32 C 20.672 32 20 31.328 20 30.5 L 20 20.5 C 20 19.672 20.672 19 21.5 19 z M 23 22 L 23 25 L 26.5 25 C 27.327 25 28 24.327 28 23.5 C 28 22.673 27.327 22 26.5 22 L 23 22 z"
     id="path2"
     style="stroke:#3c4253;stroke-opacity:1;fill:#3c4253;fill-opacity:1" />
</svg>
